#!OML:ASF H:\MichaelJackson\Top Level 1\Subject 1\Session 1\male.ASF
:FULLY-SPECIFIED
:DEGREES
2079
root 10.1729 16.4149 33.9946 -354.595 -29.3323 358.546
lowerback 1.09029 2.06137 -4.48376
upperback -1.17842 2.65212 -0.378017
thorax -2.0094 1.38352 2.04174
lowerneck -9.80656 -0.20977 6.63547
upperneck 10.1411 -1.1817 -0.709834
head 4.61193 -0.37294 -1.37508
rclavicle -1.87603e-014 3.57812e-015
rhumerus -52.3487 15.8023 -109.881
rradius 91.1286
rwrist 4.03375
rhand -22.6913 -13.4665
rfingers 7.12502
rthumb 3.74118 -43.4134
lclavicle -1.87603e-014 3.57812e-015
lhumerus -51.0382 -39.1796 120.453
lradius 106.379
lwrist 26.7265
lhand 44.9744 25.1965
lfingers 7.12502
lthumb 66.3673 29.9188
rfemur -39.2763 21.0056 13.9261
rtibia 68.5969
rfoot -15.0257 -2.51052
rtoes -12.5714
lfemur -19.503 -6.91446 -21.0872
ltibia 44.5377
lfoot -25.6362 -14.0543
ltoes 34.3755
2080
root 10.183 16.4315 34.0018 -354.366 -27.165 358.104
lowerback 1.03202 2.32218 -3.89572
upperback -1.22818 3.016 -0.265468
thorax -2.02758 1.55926 1.81797
lowerneck -9.40472 -0.217121 6.61663
upperneck 9.85021 -1.12058 -0.978005
head 4.45507 -0.365756 -1.44723
rclavicle -5.06404e-014 -2.38542e-015
rhumerus -52.6204 16.0627 -109.891
rradius 91.1038
rwrist 3.53347
rhand -21.8375 -14.0134
rfingers 7.12502
rthumb 4.56565 -43.9442
lclavicle -5.06404e-014 -2.38542e-015
lhumerus -51.2983 -39.1802 120.661
lradius 106.386
lwrist 27.9114
lhand 43.8031 26.3232
lfingers 7.12502
lthumb 65.4627 32.7104
rfemur -39.6101 21.1469 14.1616
rtibia 68.4075
rfoot -14.8183 -3.01594
rtoes -12.6577
lfemur -19.6295 -7.4315 -20.4739
ltibia 44.1857
lfoot -25.0818 -16.0585
ltoes 35.8817
2081
root 10.1862 16.456 34.0161 -354.374 -24.7423 357.927
lowerback 0.9981 2.40239 -3.67476
upperback -1.14328 3.13321 -0.148149
thorax -1.92262 1.61309 1.81512
lowerneck -9.54643 -0.150893 6.68352
upperneck 9.81979 -1.01053 -1.31722
head 4.47029 -0.329541 -1.55639
rclavicle 2.59662e-014 -1.23246e-014
rhumerus -52.6857 16.5113 -109.852
rradius 91.2357
rwrist 2.42748
rhand -20.6386 -14.478
rfingers 7.12502
rthumb 5.72331 -44.3807
lclavicle 2.59662e-014 -1.23246e-014
lhumerus -51.2351 -39.0815 120.613
lradius 106.416
lwrist 28.9015
lhand 42.5574 27.3385
lfingers 7.12502
lthumb 64.4783 35.3608
rfemur -39.6871 21.0376 14.2566
rtibia 68.1295
rfoot -14.5359 -3.4855
rtoes -11.8087
lfemur -19.5069 -8.2957 -20.1404
ltibia 43.6879
lfoot -24.536 -17.7068
ltoes 37.1936
2082
root 10.1907 16.4754 34.0306 -354.399 -22.3852 358.053
lowerback 0.864906 2.4767 -3.72605
upperback -1.16648 3.23737 -0.116408
thorax -1.88279 1.66584 1.87823
lowerneck -9.23915 -0.150471 6.76531
upperneck 9.62863 -0.966161 -1.57296
head 4.35986 -0.322887 -1.64311
rclavicle -3.47376e-014 1.47101e-014
rhumerus -52.9064 16.8635 -109.871
rradius 91.1988
rwrist 1.77153
rhand -19.06 -14.9707
rfingers 7.12502
rthumb 7.24724 -44.8266
lclavicle -3.47376e-014 1.47101e-014
lhumerus -51.4651 -38.5958 120.758
lradius 106.536
lwrist 29.2522
lhand 42.3655 28.5103
lfingers 7.12502
lthumb 64.3247 36.7729
rfemur -39.9816 20.8301 13.9469
rtibia 67.84
rfoot -14.1429 -3.66299
rtoes -10.2865
lfemur -19.4539 -9.24076 -20.1475
ltibia 43.1135
lfoot -23.9987 -18.9458
ltoes 38.1127
2083
root 10.179 16.5003 34.049 -354.658 -19.446 358.302
lowerback 0.885288 2.33168 -4.00678
upperback -1.1444 3.03867 -0.120043
thorax -1.87432 1.56988 2.03695
lowerneck -9.13221 -0.151407 6.78474
upperneck 9.72494 -0.967864 -1.52458
head 4.37204 -0.317807 -1.63154
rclavicle -2.31336e-014 -1.59028e-015
rhumerus -53.0816 16.9411 -109.98
rradius 91.0649
rwrist 1.2203
rhand -17.8041 -14.7359
rfingers 7.12502
rthumb 8.45939 -44.5464
lclavicle -2.31336e-014 -1.59028e-015
lhumerus -51.7847 -38.3992 120.832
lradius 106.572
lwrist 29.145
lhand 42.3962 29.1919
lfingers 7.12502
lthumb 64.3493 37.4162
rfemur -39.777 20.2045 13.7783
rtibia 67.5061
rfoot -13.8745 -4.08621
rtoes -9.42285
lfemur -19.1339 -10.3707 -20.2081
ltibia 42.4373
lfoot -23.3184 -20.5088
ltoes 39.1525
2084
root 10.1716 16.5273 34.0657 -354.715 -16.6599 358.53
lowerback 0.850897 2.19123 -4.2262
upperback -1.1811 2.84755 -0.171811
thorax -1.88868 1.47778 2.11282
lowerneck -9.13828 -0.199823 6.69463
upperneck 9.84064 -1.04407 -1.32691
head 4.40742 -0.344344 -1.56143
rclavicle -7.42958e-015 2.78299e-015
rhumerus -53.1796 16.9003 -110.127
rradius 90.8263
rwrist 0.700725
rhand -16.0993 -14.7115
rfingers 7.12502
rthumb 10.1043 -44.4489
lclavicle -7.42958e-015 2.78299e-015
lhumerus -51.9777 -38.2207 120.718
lradius 106.451
lwrist 28.5603
lhand 42.9325 29.282
lfingers 7.12502
lthumb 64.7769 36.8259
rfemur -39.8612 19.6034 13.4638
rtibia 67.1027
rfoot -13.7144 -4.14557
rtoes -8.76703
lfemur -19.0524 -11.2723 -20.2077
ltibia 41.7697
lfoot -22.4267 -22.2998
ltoes 40.5108
2085
root 10.1626 16.5549 34.0845 -354.65 -13.8547 358.685
lowerback 0.738039 2.01287 -4.36828
upperback -1.24631 2.61041 -0.236194
thorax -1.8797 1.36167 2.13635
lowerneck -9.09 -0.247061 6.55272
upperneck 9.85481 -1.1276 -0.944491
head 4.40438 -0.367428 -1.42537
rclavicle 4.05024e-015 1.86858e-014
rhumerus -53.1608 16.7278 -110.24
rradius 90.5122
rwrist 0.321252
rhand -14.2123 -14.5341
rfingers 7.12502
rthumb 11.9244 -44.1745
lclavicle 4.05024e-015 1.86858e-014
lhumerus -52.1296 -38.1179 120.567
lradius 106.138
lwrist 27.8354
lhand 43.7407 28.9172
lfingers 7.12502
lthumb 65.4139 35.3896
rfemur -40.0109 18.9043 13.169
rtibia 66.6002
rfoot -13.6019 -3.76588
rtoes -7.25921
lfemur -19.1193 -11.9722 -20.0692
ltibia 41.1249
lfoot -21.434 -24.3127
ltoes 41.8524
2086
root 10.154 16.5862 34.1037 -354.449 -11.0782 358.649
lowerback 0.576774 1.83285 -4.32208
upperback -1.31029 2.37767 -0.252623
thorax -1.83587 1.24498 2.10505
lowerneck -9.1062 -0.379106 6.22704
upperneck 9.78627 -1.31443 -0.463444
head 4.38505 -0.444094 -1.23561
rclavicle -1.21756e-014 1.15295e-014
rhumerus -53.1429 16.4793 -110.321
rradius 90.2531
rwrist -0.270414
rhand -12.6634 -14.3477
rfingers 7.12502
rthumb 13.4177 -43.8955
lclavicle -1.21756e-014 1.15295e-014
lhumerus -52.2328 -37.9781 120.341
lradius 105.819
lwrist 26.9516
lhand 45.1745 28.6903
lfingers 7.12502
lthumb 66.5197 33.115
rfemur -40.2335 18.218 13
rtibia 65.9513
rfoot -13.645 -3.14829
rtoes -6.68811
lfemur -19.3392 -12.5117 -19.6691
ltibia 40.544
lfoot -20.539 -26.1217
ltoes 42.7465
2087
root 10.1473 16.62 34.1243 -354.17 -8.37842 358.498
lowerback 0.370425 1.66391 -4.13851
upperback -1.40842 2.1633 -0.238385
thorax -1.79933 1.1365 2.02777
lowerneck -9.41797 -0.576233 6.38357
upperneck 9.9387 -1.60332 -0.658505
head 4.47079 -0.587941 -1.34209
rclavicle 9.0447e-015 -1.31198e-014
rhumerus -53.1675 16.2359 -110.414
rradius 90.0208
rwrist -1.12336
rhand -11.0756 -14.5026
rfingers 7.12502
rthumb 14.9476 -43.9432
lclavicle 9.0447e-015 -1.31198e-014
lhumerus -52.3544 -37.8504 120.172
lradius 105.4
lwrist 26.1354
lhand 46.9265 28.9879
lfingers 7.12502
lthumb 67.8228 30.6289
rfemur -40.485 17.54 12.8783
rtibia 65.1408
rfoot -13.9426 -2.19636
rtoes -6.9302
lfemur -19.6381 -12.8361 -19.1144
ltibia 39.9983
lfoot -20.1206 -27.3118
ltoes 42.5933
2088
root 10.1427 16.6545 34.1467 -353.867 -5.77677 358.286
lowerback 0.0813411 1.52014 -3.90177
upperback -1.45301 1.98805 -0.183414
thorax -1.66443 1.04459 1.96393
lowerneck -9.28349 -0.765341 6.06668
upperneck 9.54356 -1.8309 -0.34614
head 4.32468 -0.701665 -1.20503
rclavicle 8.44835e-016 -7.55382e-015
rhumerus -53.1334 16.0053 -110.38
rradius 89.9148
rwrist -2.04782
rhand -9.12067 -15.121
rfingers 7.12502
rthumb 16.8303 -44.4116
lclavicle 8.44835e-016 -7.55382e-015
lhumerus -52.413 -37.7021 120.046
lradius 104.959
lwrist 25.5548
lhand 48.1503 29.5621
lfingers 7.12502
lthumb 68.6968 29.0544
rfemur -40.734 16.9296 12.7533
rtibia 64.1669
rfoot -14.4303 -1.04865
rtoes -8.20394
lfemur -19.9553 -12.8477 -18.4861
ltibia 39.4692
lfoot -19.8722 -28.1117
ltoes 42.0394
